<?xml version="1.0" encoding="UTF-8"?>
<svg version="1.1" viewBox="0 0 2000 2000" width="1280" height="1280" xmlns="http://www.w3.org/2000/svg">
<path transform="translate(0)" d="m0 0h2e3v2e3h-2e3z" fill="#FDFEFD"/>
<path transform="translate(1540,410)" d="m0 0h17l9 6 5 9 1 2v10l-5 10-8 6-16 4-66 11-33 6-5 11-13 34-18 46-32 82-13 33-19 49-16 41-18 46-17 44-15 38-6 16 1 3 12 9 28 22 11 9 10 9 9 9 9 14 5 12 2 6 1 7v20l-4 12-6 10-9 11-10 8-12 6h-2l1 2 14 7 6 5 7 10 4 10 1 3v18l-3 10-5 9-5 6-10 7-10 4h-25l-12-5-10-9-7-10-4-12v-18l4-11 8-11 8-6 1-2-50 1-1 67h-16l-1-35h-33l-1 34-1 1h-14l-1-1-1-66-19-1-1 7-9 5-3-1-5-6-6-2h-13l-6 4-4 5-3 12v10l3 12 3 4v2l6 2h15l7-6 1-9-3-1h-13l-2-1-1-12 1-1h34l1 1v18l-1 25h-14l-1-1v-9l-5 5-5 4-5 2h-13l-10-4-7-6-6-12-2-9v-19l4-13 3-4h-100l2 5v14l-5 10-5 4-7 3-6 1h-18v29h-16v-67l-29 1 5 4 6 8 6 12 1 4v19l-4 12-8 11-10 8-12 4h-24l-10-4-9-7-7-8-5-11-2-9v-11l3-12 6-10 6-7 4-3-39-1-2-1v68h-16l-1-35h-33l-1 35h-16v-79l3-1h12l1 1v29h35v-28l3-1v-6l-1-2v-7l4-9 7-6 6-3 9-1h167l309-1 11-2 8-4 3-5 1-4v-8l-5-12-9-10-15-12-17-13-16-13-9-7-14-11-9-7-47-4-342-27-13-3-6-4-5-6-3-10-11-90-18-149v-22l5-8 6-5 4-2 13-1 234-6 287-7 26-1 2-8 19-49 18-46 16-41 6-9 8-5 31-6 83-14z" fill="#010101"/>
<path transform="translate(465,648)" d="m0 0 4 1-6 10-3 9-2 14v24l3 36 5 35 13 65 16 67 7 27 1 7h-8l-4-5-12-25-11-23-8-16-8-17-7-14-9-19-7-15-22-45-13-28-2-10-2 1 2 10 8 18 17 35 11 23 10 22 8 16 8 17 16 32 14 29 5 11v3l-5-1-8-14-16-33-12-25-14-29-16-33-11-23-12-25-11-26-1-8 7-6 10-4 23-5 2-2-6-12-9-14-1-8 5-6 14-8 20-7z" fill="#010101"/>
<path transform="translate(609,648)" d="m0 0 10 2 25 8 15 6 10 7v10l-6 12-9 13-2 4 9 2 22 5 10 4 2 5-1 10-9 21-20 41-11 23-12 25-16 33-11 23-18 37-2 4h-5l1-5 9-20 22-45 11-23 16-33 11-23 13-27 7-15 7-16 2-11h-2l-3 12-11 23-13 28-23 47-11 23-14 29-15 31-9 19-5 6-7-1 4-17 13-52 8-36 5-23 11-61 3-28 1-14v-28l-2-16-4-10-6-7z" fill="#010101"/>
<path transform="translate(482,647)" d="m0 0h111l-1 3-11 4-21 9-12 5 2 4 13 19 16 24-3 1-16-16-5-4v-2l-5 5-7 11-2 2 3 18 10 45 7 33 5 21v7l-8 8-7 8-12 13-1 2-4-1-7-7-7-8-11-12-3-6 6-27 8-38 7-33 3-16v-8l-9-14-1-3h-3l-2 4-10 8-10 10h-2l2-4 8-12 10-14 7-11 5-6-14-7-26-11-3-2z" fill="#010101"/>
<path transform="translate(1241,627)" d="m0 0 2 1v77l-1 1-71 1-4-1v-76l1-1z" fill="#FEFFFE"/>
<path transform="translate(1118,630)" d="m0 0h32l1 1v43l-1 32h-76v-74l1-1z" fill="#FEFFFE"/>
<path transform="translate(1168,810)" d="m0 0h74l1 2v40l-4 13-9 24-3 1-20-2-37-3-3-1v-73z" fill="#FEFFFE"/>
<path transform="translate(1054,632)" d="m0 0 4 1-1 73h-74l-1-1v-71l22-1z" fill="#FEFFFE"/>
<path transform="translate(1074,723)" d="m0 0h76l1 1v68l-1 1h-75l-1-1z" fill="#FEFFFE"/>
<path transform="translate(1075,810)" d="m0 0h75l1 1v72l-21-1-51-4-5-1v-66z" fill="#FEFFFE"/>
<path transform="translate(961,634)" d="m0 0h4l1 10-1 62h-75l-1-1v-68l1-1z" fill="#FEFFFE"/>
<path transform="translate(890,723)" d="m0 0h75v70h-76v-69z" fill="#FEFFFE"/>
<path transform="translate(1167,723)" d="m0 0h75l1 8v59l-1 3-71 1-4-1z" fill="#FEFFFE"/>
<path transform="translate(982,723)" d="m0 0h75v70h-75z" fill="#FEFFFE"/>
<path transform="translate(983,810)" d="m0 0h74l1 11v54h-15l-60-5-1-1v-58z" fill="#FEFFFE"/>
<path transform="translate(1321,625)" d="m0 0h11l-7 20-18 46-6 15-4 1h-36l-2-1v-78l1-1 20-1z" fill="#FEFFFE"/>
<path transform="translate(890,810)" d="m0 0h75l1 1v56l-1 1h-10l-62-5-4-1v-51z" fill="#FEFFFE"/>
<path transform="translate(880,944)" d="m0 0h15l3 13 8 38v4h2l4-18 9-36 6-1h8l3 8 11 43 2 3 10-47 3-7h10l4 1-2 12-15 65-1 2h-17l-3-6-10-39-1-5h-2l-1 10-8 29-3 11h-18l-2-6-11-48-5-25z" fill="#010101"/>
<path transform="translate(847,637)" d="m0 0h25l1 1v68l-35 1h-20l-2-8-7-58 1-3z" fill="#FEFFFE"/>
<path transform="translate(460,953)" d="m0 0h189l80 2 38 2 1 2-35 2-39 2-31 1-52 1h-135l-72-2-63-3-22-2v-1l8-1 73-2z" fill="#010101"/>
<path transform="translate(1135,944)" d="m0 0h28l13 1 9 4 4 5 3 9v8l-3 6-5 5-4 3v2l4 4 5 12 6 17 1 4h-17l-4-10-7-21-16-1-1 32h-16z" fill="#010101"/>
<path transform="translate(820,723)" d="m0 0h53v70l-43 1-2-1-2-10-6-53z" fill="#FEFFFE"/>
<path transform="translate(1077,944)" d="m0 0h17l3 1 15 43 11 32 1 3-1 1h-16l-4-10-2-7h-30l-5 16-1 1h-15l1-8 15-43 9-27z" fill="#010101"/>
<path transform="translate(990,944)" d="m0 0 53 1v12l-2 2h-34l-1 17h32l1 2-1 11-1 1h-30l-1 20h37l1 1v12l-1 1h-53z" fill="#010101"/>
<path transform="translate(1395,1067)" d="m0 0 13 1 9 3 6 4 1 5-7 8-12-5h-14l-4 1-1 9 1 3 17 4 12 4 7 5 4 7 1 9-3 12-6 7-8 4-4 1h-16l-13-4-6-4-4-4v-5l7-8 4 1 5 5 5 3 4 1h11l5-3 1-2v-8l-7-4-21-6-8-6-3-4-2-6 1-12 4-7 6-5 8-3z" fill="#010101"/>
<path transform="translate(682,1076)" d="m0 0h19l11 4 7 5-2 4-5 7-4-1-9-4h-14l-4 2-1 2v6l4 4 21 5 10 5 4 5 3 8-1 11-3 8-7 6-10 4h-16l-13-4-6-4-4-4v-5l6-8 4 1 8 7 6 2h12l5-3 1-2v-8l-4-3-21-6-9-5-6-9-1-8 2-9 4-6 5-4z" fill="#010101"/>
<path transform="translate(1300,1101)" d="m0 0h9l9 3 8 7 4 7 1 4v12l-5 10-8 7-8 3h-11l-10-4-8-9-3-8v-11l3-8 7-8 8-4z" fill="#FEFFFE"/>
<path transform="translate(867,1101)" d="m0 0h9l10 4 8 8 3 8v14l-4 8-8 8-9 3h-10l-9-3-8-7-4-8-1-11 3-10 7-8 8-5z" fill="#FEFFFE"/>
<path transform="translate(830,810)" d="m0 0h43l1 50-5 1-32-2-2-3-5-41z" fill="#FEFFFE"/>
<path transform="translate(1434,1068)" d="m0 0 61 1-1 13-12 1h-10v64l-1 1h-15l-1-1v-64h-14l-8-1-1-12z" fill="#010101"/>
<path transform="translate(1259,723)" d="m0 0h34l-1 6-15 39-11 26h-5l-2-3z" fill="#FEFFFE"/>
<path transform="translate(865,1114)" d="m0 0h11l5 3 3 3 1 3v10l-3 5-5 4-9 1-6-3-5-6-1-2v-7l3-7z" fill="#010101"/>
<path transform="translate(1300,1114)" d="m0 0h10l6 4 3 5v9l-3 6-5 4-9 1-8-4-4-7 1-11 4-5z" fill="#010101"/>
<path transform="translate(473,649)" d="m0 0 1 2-6 14-2 8-1 9v31l3 31 5 34 7 36 10 46 15 60 5 19-1 3-3-6-12-46-13-56-10-49-6-37-3-31v-41l3-12 4-8z" fill="#010101"/>
<path transform="translate(1178,1088)" d="m0 0h34l1 1v17l-4 1-31-1z" fill="#FEFFFE"/>
<path transform="translate(943,1090)" d="m0 0 20 1 4 4 1 3v9l-4 5-7 2h-14z" fill="#FEFFFE"/>
<path transform="translate(1151,958)" d="m0 0h19l5 4 1 3v8l-3 3-4 2h-18z" fill="#FEFFFE"/>
<path transform="translate(700,723)" d="m0 0 2 2v7l-4 12-13 27-9 17-6 14-8 16-12 25-14 29-17 35-14 29h-2l2-6 11-23 5-9 3-7 8-17 8-16 8-17 6-12 10-22 16-32 12-26 5-11 2-7z" fill="#010101"/>
<path transform="translate(1085,962)" d="m0 0h2l9 27v3h-20l1-5z" fill="#FEFFFE"/>
<path transform="translate(545,711)" d="m0 0h2l10 48 12 53 4 19v3h-2l-6-27-5-21-10-45-5-23z" fill="#010101"/>
<path transform="translate(418,673)" d="m0 0 2 1 1 8 6 10 7 10 1 6-3 7h-2v-3h2l-3-9-7-11-6-11v-6z" fill="#FEFFFE"/>
<path transform="translate(662,673)" d="m0 0 2 2-1 6-7 12-6 10-3 9 2 1-4-1v-9l6-11 7-10z" fill="#FEFFFE"/>
<path transform="translate(555,672)" d="m0 0 5 5 10 13 10 15-1 2-14-19-10-14z" fill="#010101"/>
<path transform="translate(674,673)" d="m0 0 3 1-1 7-5 10-4 5-6 8-1-2 6-9 6-10 2-7z" fill="#010101"/>
</svg>
