<?xml version="1.0" encoding="UTF-8"?>
<svg version="1.1" viewBox="0 0 1336 856" width="1280" height="1280" xmlns="http://www.w3.org/2000/svg">
<path transform="translate(0)" d="m0 0h1336v856h-1336z" fill="#FDFDFD"/>
<path transform="translate(1236,34)" d="m0 0h16l8 4 7 10 1 3v10l-5 10-8 6-11 3-71 12-33 6-4 9-13 33-19 49-16 41-36 92-19 49-32 82-28 72-5 12 1 4 12 9 15 12 13 10 11 9 10 9 10 10 8 13 5 12 3 13v20l-4 12-6 10-9 11-13 10-11 5 15 8 6 5 7 10 4 10 1 4v17l-3 10-5 9-5 6-10 7-11 4h-24l-12-5-10-9-7-10-4-12v-17l4-12 6-8 4-5 6-4 1-2-50 1-1 66-1 1h-15l-1-35h-33l-1 34-1 1h-14l-1-1-1-66-19-1-1 7-9 5-3-1-5-6-5-2h-14l-6 4-4 5-3 12v10l3 12 3 4v2l6 2h15l4-3h2l3-13h-18l-1-1-1-12 1-1h34l1 1v20l-1 23h-14l-1-1v-9l-5 5-5 4-5 2h-13l-10-4-7-6-6-12-2-9v-19l4-13 4-6-2 1-99 1 2 5v14l-5 10-5 4-7 3-7 1h-17v29h-16v-67l-29 1 5 4 6 8 6 12 1 4v19l-4 12-6 8-4 5-9 6-11 4h-24l-10-4-9-7-7-8-5-11-2-10v-10l2-9 6-12 7-8 4-3-39-1-2-1v68h-16l-1-35h-33l-1 35h-16v-79l4-1h11l1 1v29h35v-28l3-1-1-15 4-9 7-6 6-3 9-1h174l302-1 11-2 8-4 3-5 1-4v-8l-5-12-9-10-15-12-17-13-16-13-9-7-14-11-9-7-34-3-128-10-126-10-100-8-12-2-8-5-5-6-3-10-11-90-18-149v-22l5-8 6-5 4-2 13-1 236-6 240-6 49-1 22-1 2-8 16-41 10-26 16-41 12-30 6-8 8-4 24-5 89-15z" fill="#010101"/>
<path transform="translate(161,272)" d="m0 0 4 1-6 10-4 14-1 9v25l2 26 4 32 8 43 9 43 10 42 11 43 1 7h-8l-4-5-14-29-9-19-8-16-8-17-7-14-9-19-7-15-22-45-7-15-6-13-2-9h-2l2 10 8 18 17 35 11 23 10 22 8 16 8 17 8 16 8 17 16 32 3 7v3l-5-1-8-14-14-29-12-25-17-35-14-29-24-50-11-26-1-7 4-5 10-5 17-4 9-2 2-1-2-6-11-18-3-6 1-7 7-6 14-7 26-9z" fill="#010101"/>
<path transform="translate(305,272)" d="m0 0 10 2 25 8 13 5 11 7 1 2v9l-6 12-10 14-1 3 9 2 25 6 7 3 2 5-1 10-9 21-20 41-11 23-12 25-16 33-11 23-18 37-2 4h-5l1-5 9-20 14-29 8-16 22-46 7-14 11-23 16-34 9-19 2-11-2 1-4 12-10 21-13 28-22 45-12 25-28 58-10 21-5 6h-6l-1-3 17-67 8-36 5-23 10-56 3-23 2-24v-28l-2-16-4-10-6-7z" fill="#010101"/>
<path transform="translate(178,271)" d="m0 0h111l1 2-11 4-23 10-12 5 2 4 13 19 10 15 6 10h-3l-17-17-4-3v-2l-5 5-7 11h-2l2 15 13 60 8 36 2 8v7l-8 8-7 8-12 13-1 2-4-1-7-7-7-8-11-12-2-3v-7l8-38 10-45 5-27v-8l-9-14-1-3h-3l-2 4-10 8-10 10-2-1 10-15 10-14 7-11 5-6-14-7-23-10-6-3z" fill="#010101"/>
<path transform="translate(937,251)" d="m0 0 2 1v38l-1 40-52 1h-18l-5-1v-76l1-1z" fill="#FEFEFE"/>
<path transform="translate(813,254)" d="m0 0h33l1 1v48l-1 27h-76v-74l1-1z" fill="#FEFEFE"/>
<path transform="translate(864,434)" d="m0 0h74l1 2v39l-2 9-11 29-3 1-21-2-36-3-3-1v-73z" fill="#FEFEFE"/>
<path transform="translate(745,256)" d="m0 0h8l1 1v21l-1 52h-74l-1-1v-71l21-1z" fill="#FEFEFE"/>
<path transform="translate(770,347)" d="m0 0h76l1 1v68l-1 1-72 1-4-1z" fill="#FEFEFE"/>
<path transform="translate(770,434)" d="m0 0h76l1 1v72l-21-1-51-4-5-1z" fill="#FEFEFE"/>
<path transform="translate(657,258)" d="m0 0h4l1 15-1 57h-75l-1-1v-68l1-1z" fill="#FEFEFE"/>
<path transform="translate(863,347)" d="m0 0h75l1 4v65l-1 1-72 1-3-1z" fill="#FEFEFE"/>
<path transform="translate(586,347)" d="m0 0h75v70h-76v-69z" fill="#FEFEFE"/>
<path transform="translate(678,347)" d="m0 0h75v70h-75z" fill="#FEFEFE"/>
<path transform="translate(679,434)" d="m0 0h74l1 2v63h-15l-60-5-1-1v-58z" fill="#FEFEFE"/>
<path transform="translate(1017,249)" d="m0 0h11l-3 9-16 42-12 30-4 1h-36l-2-1v-78l1-1 20-1z" fill="#FEFEFE"/>
<path transform="translate(586,434)" d="m0 0h75l1 1v30l-1 27h-10l-63-5-3-1v-51z" fill="#FEFEFE"/>
<path transform="translate(576,568)" d="m0 0h14l2 2 7 36 3 14v3h2l4-18 6-22 3-13 2-2h12l3 8 11 44 2 2 10-47 3-7h10l4 1-2 12-15 65-1 2h-17l-3-6-11-42v-2h-2l-1 9-9 34-2 7h-18l-2-6-16-71z" fill="#010101"/>
<path transform="translate(543,261)" d="m0 0h26v69l-30 1h-25l-2-8-7-58v-3z" fill="#FEFEFE"/>
<path transform="translate(162,577)" d="m0 0h182l81 2 38 2 1 2-35 2-39 2-82 2h-135l-73-2-62-3-22-2 3-2 80-2z" fill="#010101"/>
<path transform="translate(831,568)" d="m0 0h28l16 2 6 3 4 5 3 9v8l-4 7-8 7v2l4 4 5 12 6 17 1 4h-17l-4-10-6-17-1-4-16-1-1 32h-16z" fill="#010101"/>
<path transform="translate(516,347)" d="m0 0h53v70l-43 1-2-1-2-10-6-53z" fill="#FEFEFE"/>
<path transform="translate(773,568)" d="m0 0h12l7 1 3 5 16 47 8 23 1 3-1 1h-16l-4-10-2-7h-30l-5 15-1 2h-15l1-8 15-43 9-27z" fill="#010101"/>
<path transform="translate(686,568)" d="m0 0 53 1v12l-1 1-35 1-1 17h32l1 2-1 11-1 1h-30l-1 20h37l1 1v12l-1 1h-53z" fill="#010101"/>
<path transform="translate(1091,691)" d="m0 0 13 1 9 3 6 4 1 5-7 8-12-5h-14l-4 1-1 9 1 3 16 4 13 4 7 5 4 8v15l-4 8-7 6-9 3h-16l-13-4-6-4-4-4v-5l7-8 4 1 4 5 10 4h11l5-3 1-2v-8l-7-4-21-6-8-6-3-4-2-7 1-11 4-7 6-5 8-3z" fill="#010101"/>
<path transform="translate(378,700)" d="m0 0h19l11 4 6 4-1 5-5 7-4-1-9-4h-14l-4 2-1 2v6l4 4 21 5 10 5 6 9 1 10-3 11-6 7-8 4-4 1h-16l-13-4-6-4-4-4v-5l7-8 4 2 7 6 6 2h12l5-3 1-2v-8l-4-3-21-6-9-5-5-7-2-9 2-10 4-6 5-4z" fill="#010101"/>
<path transform="translate(996,725)" d="m0 0h9l9 3 8 7 4 7 1 4v12l-5 10-8 7-8 3h-12l-7-3-8-7-4-7-1-4v-11l4-9 6-7 8-4z" fill="#FEFEFE"/>
<path transform="translate(562,725)" d="m0 0h10l10 4 8 8 3 8v14l-4 8-4 5-6 4-7 2h-10l-9-3-7-6-5-9-1-11 3-10 7-8 8-5z" fill="#FEFEFE"/>
<path transform="translate(526,434)" d="m0 0h43l1 50-5 1-32-2-2-3-5-41z" fill="#FEFEFE"/>
<path transform="translate(1129,693)" d="m0 0h62l-1 13-12 1h-10v64l-1 1h-15l-1-1v-63l-2-1h-11l-9-1z" fill="#010101"/>
<path transform="translate(956,347)" d="m0 0h33l-1 6-15 39-11 26h-5l-2-3v-67z" fill="#FEFEFE"/>
<path transform="translate(996,738)" d="m0 0h10l6 4 3 5v9l-3 6-5 4-9 1-8-4-3-4-1-9 2-6 5-5z" fill="#010101"/>
<path transform="translate(561,738)" d="m0 0h11l5 3 3 3 1 3v10l-3 5-5 4-9 1-7-4-4-5-1-2v-7l3-7z" fill="#010101"/>
<path transform="translate(874,712)" d="m0 0h34l1 1v17l-4 1h-21l-10-1z" fill="#FEFEFE"/>
<path transform="translate(167,278)" d="m0 0 1 2-4 8-3 16v34l3 31 5 33 8 42 12 53 13 51 4 14-1 4-3-7-12-45-13-56-8-38-7-41-3-26-1-14v-38l2-10 4-10z" fill="#010101"/>
<path transform="translate(639,714)" d="m0 0 20 1 4 4 1 3v9l-2 4-9 3h-14z" fill="#FEFEFE"/>
<path transform="translate(848,581)" d="m0 0 18 1 4 2 2 5v8l-3 3-4 2h-18v-20z" fill="#FEFEFE"/>
<path transform="translate(397,348)" d="m0 0h1v8l-6 16-11 23-21 42-8 18-11 23-8 16-8 17-24 48-1-3 8-16 8-17 8-16 12-25 8-16 9-19 7-16 9-17 13-28 11-23z" fill="#010101"/>
<path transform="translate(781,586)" d="m0 0h2l9 27v3h-20l1-6z" fill="#FEFEFE"/>
<path transform="translate(242,335)" d="m0 0h1l10 48 16 72v3h-2l-7-30-7-31-9-42-3-13v-6z" fill="#010101"/>
<path transform="translate(114,297)" d="m0 0 2 1 1 8 6 10 7 10 1 7-3 6h-2l1-8-7-12-7-11-1-9z" fill="#FEFEFE"/>
<path transform="translate(358,297)" d="m0 0 2 2-1 6-6 11-6 9-3 8 1 4h-3l-1-2v-8l6-11 7-10z" fill="#FEFEFE"/>
<path transform="translate(249,293)" d="m0 0 5 5 10 13 10 15 1 4-3-3-10-14-11-15z" fill="#010101"/>
<path transform="translate(370,297)" d="m0 0 3 3-1 6-6 10-8 11-2 1 2-6 8-10 4-9z" fill="#010101"/>
</svg>
